<svg width="94" height="30" viewBox="0 0 94 30" fill="none" xmlns="http://www.w3.org/2000/svg">
<path d="M81.4453 7.1759L88.3087 15.0642L81.4453 22.9516H85.9552L92.8186 15.0642L85.9552 7.1759H81.4453Z" fill="#79E22D"/>
<path d="M50.8416 7.17596H46.7582L42.7931 18.0856L38.8281 7.17596H34.7123L40.6663 22.9516H44.92L50.8416 7.17596Z" fill="#121212"/>
<path d="M8.10598 6.79517C9.61299 6.79517 10.9609 7.14453 12.1497 7.84418C13.3384 8.54382 14.2672 9.50871 14.9342 10.7389C15.6022 11.969 15.9371 13.3581 15.9371 14.9053V22.9516H11.6714V14.8729C11.6714 13.5578 11.4271 12.4875 10.7268 11.6603C10.0274 10.8331 9.29475 10.42 8.10598 10.42C6.93848 10.42 6.21689 10.8331 5.51658 11.6603C4.81627 12.4875 4.57204 13.5587 4.57204 14.8729V22.9516H0.306335V14.9053C0.306335 13.3581 0.640301 11.969 1.30916 10.7389C1.97802 9.50871 2.90591 8.54382 4.09468 7.84418C5.28345 7.14453 6.62024 6.79517 8.10598 6.79517Z" fill="#121212"/>
<path fill-rule="evenodd" clip-rule="evenodd" d="M33.6835 7.17596H29.8314V8.09372C28.5344 7.20553 26.9765 6.68796 25.3002 6.68796C20.7874 6.68796 17.1286 10.4376 17.1286 15.0633C17.1286 19.6891 20.7874 23.4387 25.3002 23.4387C26.9765 23.4387 28.5344 22.9202 29.8314 22.033V22.9516H33.6835V7.17596ZM25.3002 10.5041C27.699 10.5041 29.651 12.5494 29.651 15.0633C29.651 17.5772 27.699 19.6226 25.3002 19.6226C22.9013 19.6226 20.9493 17.5772 20.9493 15.0633C20.9493 12.5494 22.9013 10.5041 25.3002 10.5041Z" fill="#121212"/>
<path d="M70.788 17.9257L74.6088 7.17596H78.7449L71.9962 24.9554C71.3598 26.631 70.5799 27.839 69.6566 28.5811C68.7334 29.3233 67.465 29.6939 65.8525 29.6939C64.7914 29.6939 63.9209 29.5359 63.2419 29.217V25.4009C64.0911 25.8667 64.9617 26.1005 65.8525 26.1005C66.5741 26.1005 67.1579 25.9036 67.6038 25.5118C68.0497 25.119 68.4318 24.4886 68.75 23.6189L69.0044 22.8879L63.9015 10.42H61.3861V22.9516H57.5654V5.74525C57.5654 4.00677 58.0585 2.66571 59.0456 1.72207C60.0317 0.778435 61.3639 0.306152 63.0402 0.306152C63.6563 0.306152 64.4945 0.432773 65.5556 0.68786V4.2175C65.1106 4.06962 64.7387 3.96333 64.4417 3.89956C64.1448 3.83579 63.8154 3.80436 63.4547 3.80436C62.8182 3.80436 62.314 3.98459 61.943 4.34504C61.5711 4.70549 61.3861 5.21474 61.3861 5.87187V7.17596H66.8406L70.788 17.9257Z" fill="#121212"/>
<path d="M55.7003 22.9516H51.8482V7.17596H55.7003V22.9516Z" fill="#121212"/>
<path d="M51.0886 2.99012C51.0886 1.50765 52.2913 0.306152 53.7752 0.306152C55.2581 0.306152 56.4608 1.50765 56.4617 2.99012C56.4617 4.47258 55.2591 5.67408 53.7752 5.67408C52.2922 5.67408 51.0886 4.47258 51.0886 2.99012Z" fill="#121212"/>
<path fill-rule="evenodd" clip-rule="evenodd" d="M90.047 1.1509V3.71379H90.4023V2.55481H90.8389C91.0027 2.55481 91.098 2.64076 91.1257 2.81359L91.2488 3.71379H91.6021L91.4523 2.77292C91.4245 2.57329 91.3441 2.45961 91.2071 2.43188C91.3163 2.3866 91.4097 2.3145 91.4874 2.21376C91.5642 2.11395 91.6031 1.99102 91.6031 1.84592C91.6031 1.6278 91.5392 1.45774 91.4116 1.33482C91.2839 1.21282 91.1063 1.1509 90.8796 1.1509H90.047ZM91.1535 2.16663C91.0804 2.23502 90.9842 2.26922 90.8658 2.26922H90.4023V1.45127H90.8658C90.9851 1.45127 91.0804 1.48732 91.1535 1.56033C91.2256 1.63242 91.2626 1.73316 91.2626 1.85978C91.2626 1.99657 91.2256 2.09824 91.1535 2.16663Z" fill="#121212"/>
<path fill-rule="evenodd" clip-rule="evenodd" d="M88.7093 2.47347C88.7093 3.0733 88.9008 3.57146 89.2829 3.96611C89.665 4.36168 90.1562 4.55946 90.7566 4.56131C91.1479 4.56131 91.5004 4.47073 91.814 4.28866C92.1285 4.10659 92.3737 3.85705 92.5513 3.53819C92.7289 3.22025 92.8178 2.86535 92.8178 2.4744V2.39306C92.8178 2.00212 92.7289 1.64721 92.5513 1.32928C92.3737 1.01042 92.1285 0.760873 91.814 0.5788C91.5004 0.396727 91.1479 0.306152 90.7566 0.306152C90.1562 0.306152 89.665 0.503938 89.2829 0.899508C88.8999 1.29415 88.7093 1.79139 88.7093 2.39214V2.47347ZM92.395 2.48734C92.395 2.9781 92.2396 3.38754 91.9306 3.71471C91.6207 4.04189 91.2293 4.20548 90.7566 4.20548C90.2839 4.20548 89.8925 4.04189 89.5826 3.71471C89.2736 3.38754 89.1191 2.9781 89.1191 2.48734V2.37828C89.1191 1.88751 89.2736 1.47808 89.5826 1.1509C89.8925 0.822797 90.2839 0.660133 90.7566 0.660133C91.2293 0.660133 91.6207 0.823721 91.9306 1.1509C92.2396 1.47808 92.395 1.88751 92.395 2.37828V2.48734Z" fill="#121212"/>
</svg>
